# Blender v3.1.2 OBJ File: 'crystal.blend'
# www.blender.org
mtllib crystal3.mtl
o Cone.002_Cone.006
v -3.746121 -1.420490 2.055769
v -3.746121 0.309511 2.355769
v -3.009999 -1.420490 2.480769
v -3.269807 0.309511 2.630769
v -3.009999 -1.420490 3.330769
v -3.269807 0.309511 3.180769
v -3.746121 -1.420490 3.755769
v -3.708434 0.328077 3.341352
v -4.482242 -1.420490 3.330769
v -4.184748 0.328077 3.066352
v -4.482242 -1.420490 2.480769
v -4.184748 0.328077 2.516352
v -3.634066 0.997189 2.841074
v -3.744666 0.997876 2.772004
v -3.632611 0.997876 2.966089
v -3.708434 1.015755 2.920742
v -3.820489 1.015755 2.856046
v -3.820489 1.015755 2.726657
v -3.909519 -1.333665 2.217486
v -4.254385 -0.225496 2.055817
v -3.417886 -1.105079 2.384347
v -3.936270 -0.077587 2.163785
v -3.361790 -0.907963 2.913305
v -3.920862 0.042810 2.431942
v -3.797328 -0.939434 3.275402
v -4.244137 -0.030266 2.603355
v -4.288962 -1.168020 3.108541
v -4.541363 -0.171026 2.569496
v -4.345057 -1.365135 2.579583
v -4.536204 -0.245859 2.290114
v -4.310581 0.314951 2.155402
v -4.376572 0.283182 2.161389
v -4.324834 0.322530 2.187024
v -4.416850 0.285040 2.203134
v -4.478729 0.254678 2.223707
v -4.460018 0.257897 2.187638
v -3.545896 -0.791533 2.625051
v -3.194057 0.018269 3.395465
v -3.209823 -1.144079 2.915850
v -2.976597 -0.209849 3.583630
v -3.395482 -1.380731 3.396812
v -3.096730 -0.362977 3.894840
v -3.917215 -1.264838 3.586974
v -3.434322 -0.287987 4.017886
v -4.253288 -0.912292 3.296175
v -3.733831 -0.145823 3.765003
v -4.067629 -0.675640 2.815213
v -3.613698 0.007306 3.453792
v -3.068865 0.202599 3.916494
v -3.151175 0.223631 3.847656
v -3.097127 0.166575 3.989707
v -3.207698 0.151583 3.994083
v -3.309755 0.151929 3.909669
v -3.281493 0.187953 3.836455
v -4.379531 -1.004355 2.873492
v -4.651333 -0.482988 3.175099
v -4.099571 -0.813508 2.870392
v -4.459123 -0.311097 3.175341
v -3.865054 -0.744288 3.097234
v -4.358105 -0.361794 3.289680
v -3.888702 -0.870022 3.405258
v -4.373407 -0.443152 3.488989
v -4.168663 -1.060869 3.408358
v -4.562251 -0.565191 3.463437
v -4.403179 -1.130090 3.181515
v -4.666635 -0.564345 3.374408
v -4.648773 -0.259892 3.401284
v -4.674694 -0.276150 3.429621
v -4.626685 -0.259068 3.417071
v -4.630285 -0.278207 3.463959
v -4.670814 -0.326109 3.485570
v -4.693234 -0.323413 3.466955
vt 1.000000 0.500000
vt 1.000000 1.000000
vt 0.833333 1.000000
vt 0.833333 0.500000
vt 0.666667 1.000000
vt 0.666667 0.500000
vt 0.500000 1.000000
vt 0.500000 0.500000
vt 0.333333 1.000000
vt 0.333333 0.500000
vt 0.166667 1.000000
vt 0.333333 1.000000
vt 0.166667 1.000000
vt 0.166667 0.500000
vt -0.000000 1.000000
vt -0.000000 0.500000
vt 0.750000 0.490000
vt 0.957846 0.370000
vt 0.957846 0.130000
vt 0.750000 0.010000
vt 0.542154 0.130000
vt 0.542154 0.370000
vt 0.457846 0.370000
vt 0.250000 0.490000
vt 0.042154 0.370000
vt 0.042154 0.130000
vt 0.250000 0.010000
vt 0.457846 0.130000
vt 1.000000 1.000000
vt 0.833333 1.000000
vt 0.666667 1.000000
vt 0.500000 1.000000
vt -0.000000 1.000000
vt 1.000000 0.500000
vt 1.000000 1.000000
vt 0.833333 1.000000
vt 0.833333 0.500000
vt 0.666667 1.000000
vt 0.666667 0.500000
vt 0.500000 1.000000
vt 0.500000 0.500000
vt 0.333333 1.000000
vt 0.333333 0.500000
vt 0.166667 1.000000
vt 0.333333 1.000000
vt 0.166667 1.000000
vt 0.166667 0.500000
vt -0.000000 1.000000
vt -0.000000 0.500000
vt 0.750000 0.490000
vt 0.957846 0.370000
vt 0.957846 0.130000
vt 0.750000 0.010000
vt 0.542154 0.130000
vt 0.542154 0.370000
vt 0.457846 0.370000
vt 0.250000 0.490000
vt 0.042154 0.370000
vt 0.042154 0.130000
vt 0.250000 0.010000
vt 0.457846 0.130000
vt 1.000000 1.000000
vt 0.833333 1.000000
vt 0.666667 1.000000
vt 0.500000 1.000000
vt -0.000000 1.000000
vt 1.000000 0.500000
vt 1.000000 1.000000
vt 0.833333 1.000000
vt 0.833333 0.500000
vt 0.666667 1.000000
vt 0.666667 0.500000
vt 0.500000 1.000000
vt 0.500000 0.500000
vt 0.333333 1.000000
vt 0.333333 0.500000
vt 0.166667 1.000000
vt 0.333333 1.000000
vt 0.166667 1.000000
vt 0.166667 0.500000
vt -0.000000 1.000000
vt -0.000000 0.500000
vt 0.750000 0.490000
vt 0.957846 0.370000
vt 0.957846 0.130000
vt 0.750000 0.010000
vt 0.542154 0.130000
vt 0.542154 0.370000
vt 0.457846 0.370000
vt 0.250000 0.490000
vt 0.042154 0.370000
vt 0.042154 0.130000
vt 0.250000 0.010000
vt 0.457846 0.130000
vt 1.000000 1.000000
vt 0.833333 1.000000
vt 0.666667 1.000000
vt 0.500000 1.000000
vt -0.000000 1.000000
vt 1.000000 0.500000
vt 1.000000 1.000000
vt 0.833333 1.000000
vt 0.833333 0.500000
vt 0.666667 1.000000
vt 0.666667 0.500000
vt 0.500000 1.000000
vt 0.500000 0.500000
vt 0.333333 1.000000
vt 0.333333 0.500000
vt 0.166667 1.000000
vt 0.333333 1.000000
vt 0.166667 1.000000
vt 0.166667 0.500000
vt -0.000000 1.000000
vt -0.000000 0.500000
vt 0.750000 0.490000
vt 0.957846 0.370000
vt 0.957846 0.130000
vt 0.750000 0.010000
vt 0.542154 0.130000
vt 0.542154 0.370000
vt 0.457846 0.370000
vt 0.250000 0.490000
vt 0.042154 0.370000
vt 0.042154 0.130000
vt 0.250000 0.010000
vt 0.457846 0.130000
vt 1.000000 1.000000
vt 0.833333 1.000000
vt 0.666667 1.000000
vt 0.500000 1.000000
vt -0.000000 1.000000
vn 0.4945 0.1485 -0.8564
vn 0.9889 0.1485 0.0000
vn 0.4417 0.1711 0.8807
vn -0.4887 0.2112 0.8465
vn -0.8837 0.4681 0.0000
vn -0.9858 0.1677 0.0000
vn -0.4411 0.1235 -0.8889
vn 0.0000 -1.0000 0.0000
vn 0.1468 0.9855 -0.0847
vn 0.4480 0.4656 -0.7632
vn 0.2251 0.4567 0.8607
vn -0.1656 0.4448 -0.8802
vn -0.4418 0.4681 0.7653
vn 0.8842 0.4672 -0.0024
vn 0.3350 -0.0331 -0.9416
vn 0.8859 0.3981 -0.2380
vn 0.3878 0.6281 0.6746
vn -0.3931 0.3860 0.8345
vn -0.9901 0.1007 -0.0978
vn -0.9803 -0.1602 0.1157
vn -0.5982 -0.2949 -0.7451
vn 0.3158 -0.8996 0.3017
vn -0.4192 0.8306 -0.3664
vn 0.1653 0.1953 -0.9667
vn 0.0822 0.7681 0.6350
vn -0.5786 -0.0238 -0.8153
vn -0.3324 0.6441 0.6889
vn 0.6779 0.6752 -0.2909
vn 0.7657 0.2365 -0.5982
vn 0.9170 -0.3566 0.1786
vn 0.2051 -0.4781 0.8540
vn -0.6557 -0.0127 0.7550
vn -0.6023 0.7835 0.1530
vn -0.8178 0.5745 -0.0330
vn -0.1040 0.7118 -0.6946
vn -0.3615 -0.7737 -0.5203
vn -0.2013 0.9074 0.3688
vn 0.7607 0.5324 -0.3712
vn 0.2551 -0.1298 0.9582
vn -0.1102 0.9201 -0.3759
vn -0.5307 0.3411 0.7759
vn 0.9407 -0.0591 0.3340
vn -0.2791 0.3562 -0.8918
vn 0.4669 0.7302 -0.4988
vn 0.6556 0.6801 0.3280
vn 0.0319 -0.1190 0.9924
vn -0.6135 -0.3427 0.7114
vn -0.5380 -0.4928 0.6839
vn -0.9115 -0.3516 -0.2135
vn 0.5298 -0.7960 -0.2930
vn -0.3678 0.7738 0.5157
vn -0.5775 0.5845 -0.5699
vn 0.4781 0.7997 0.3631
vn -0.9899 -0.0005 -0.1418
vn -0.0135 -0.0050 0.9999
vn 0.3428 0.9388 0.0355
usemtl None
s off
f 1/1/1 2/2/1 4/3/1 3/4/1
f 3/4/2 4/3/2 6/5/2 5/6/2
f 5/6/3 6/5/3 8/7/3 7/8/3
f 7/8/4 8/7/4 10/9/4 9/10/4
f 12/11/5 10/9/5 17/12/5 18/13/5
f 9/10/6 10/9/6 12/11/6 11/14/6
f 11/14/7 12/11/7 2/15/7 1/16/7
f 1/17/8 3/18/8 5/19/8 7/20/8 9/21/8 11/22/8
f 13/23/9 14/24/9 18/25/9 17/26/9 16/27/9 15/28/9
f 4/3/10 2/2/10 14/29/10 13/30/10
f 8/7/11 6/5/11 15/31/11 16/32/11
f 2/15/12 12/11/12 18/13/12 14/33/12
f 10/9/13 8/7/13 16/32/13 17/12/13
f 6/5/14 4/3/14 13/30/14 15/31/14
f 19/34/15 20/35/15 22/36/15 21/37/15
f 21/37/16 22/36/16 24/38/16 23/39/16
f 23/39/17 24/38/17 26/40/17 25/41/17
f 25/41/18 26/40/18 28/42/18 27/43/18
f 30/44/19 28/42/19 35/45/19 36/46/19
f 27/43/20 28/42/20 30/44/20 29/47/20
f 29/47/21 30/44/21 20/48/21 19/49/21
f 19/50/22 21/51/22 23/52/22 25/53/22 27/54/22 29/55/22
f 31/56/23 32/57/23 36/58/23 35/59/23 34/60/23 33/61/23
f 22/36/24 20/35/24 32/62/24 31/63/24
f 26/40/25 24/38/25 33/64/25 34/65/25
f 20/48/26 30/44/26 36/46/26 32/66/26
f 28/42/27 26/40/27 34/65/27 35/45/27
f 24/38/28 22/36/28 31/63/28 33/64/28
f 37/67/29 38/68/29 40/69/29 39/70/29
f 39/70/30 40/69/30 42/71/30 41/72/30
f 41/72/31 42/71/31 44/73/31 43/74/31
f 43/74/32 44/73/32 46/75/32 45/76/32
f 48/77/33 46/75/33 53/78/33 54/79/33
f 45/76/34 46/75/34 48/77/34 47/80/34
f 47/80/35 48/77/35 38/81/35 37/82/35
f 37/83/36 39/84/36 41/85/36 43/86/36 45/87/36 47/88/36
f 49/89/37 50/90/37 54/91/37 53/92/37 52/93/37 51/94/37
f 40/69/38 38/68/38 50/95/38 49/96/38
f 44/73/39 42/71/39 51/97/39 52/98/39
f 38/81/40 48/77/40 54/79/40 50/99/40
f 46/75/41 44/73/41 52/98/41 53/78/41
f 42/71/42 40/69/42 49/96/42 51/97/42
f 55/100/43 56/101/43 58/102/43 57/103/43
f 57/103/44 58/102/44 60/104/44 59/105/44
f 59/105/45 60/104/45 62/106/45 61/107/45
f 61/107/46 62/106/46 64/108/46 63/109/46
f 66/110/47 64/108/47 71/111/47 72/112/47
f 63/109/48 64/108/48 66/110/48 65/113/48
f 65/113/49 66/110/49 56/114/49 55/115/49
f 55/116/50 57/117/50 59/118/50 61/119/50 63/120/50 65/121/50
f 67/122/51 68/123/51 72/124/51 71/125/51 70/126/51 69/127/51
f 58/102/52 56/101/52 68/128/52 67/129/52
f 62/106/53 60/104/53 69/130/53 70/131/53
f 56/114/54 66/110/54 72/112/54 68/132/54
f 64/108/55 62/106/55 70/131/55 71/111/55
f 60/104/56 58/102/56 67/129/56 69/130/56
