# Blender v3.1.2 OBJ File: 'crystal.blend'
# www.blender.org
mtllib crystal2.mtl
o Cone.004
v -1.230354 -1.311524 2.646569
v 0.060150 -1.313302 2.848357
v 0.250061 -0.600830 3.237010
v 0.009497 -0.778095 4.000624
v -1.109564 -1.255405 3.397615
v -0.362509 -0.921563 3.054352
v 0.338927 -1.118371 3.430722
v -1.141772 -1.137193 3.448203
v -0.432606 -1.344335 2.758882
v 0.489850 -1.332747 2.958133
v 0.677455 -1.078293 3.531667
v 0.081181 -1.171648 4.086773
v -0.678626 -1.060087 4.076132
v -0.968496 -1.231134 3.373485
v -2.255234 0.513562 2.897809
v -2.140853 0.587550 2.855553
v -2.053712 0.713653 3.040131
v -2.109864 0.488799 3.379399
v -2.369487 0.365542 3.109096
v -0.623105 1.089385 2.155418
v -0.572189 0.998648 2.225413
v -0.271727 1.305270 2.265303
v -0.276111 1.238392 2.326462
v -0.268730 1.298836 2.281363
v -0.135952 1.259065 2.501431
v -0.477989 1.009207 2.763565
v -0.415892 0.950527 2.889845
v -0.985139 0.542175 2.881811
v -1.020442 0.379728 3.074489
v -0.950801 0.663168 2.515103
v -0.997438 0.528512 2.526699
v -0.749876 -1.433601 4.455368
v -0.851155 -1.410437 4.337792
v -0.338681 -1.398798 4.576514
v -0.504304 -1.429413 4.579277
v 0.308823 -1.181644 4.175818
v 0.197229 -1.225900 4.338199
v -0.511236 -1.275068 4.137825
v -0.581482 -1.302237 4.095727
v -2.335092 0.416356 3.237117
v -2.275217 0.445612 3.301677
v -2.322694 0.467213 3.249648
v -2.230874 0.692489 3.002736
v -2.243721 0.614962 2.925536
v -2.192010 0.681948 2.998994
v -2.184990 0.687376 2.909547
v -2.186986 0.698622 3.034546
v -2.116563 0.733538 3.019716
v -2.245881 0.629108 3.165807
v -2.194202 0.612090 3.260105
v -2.333558 0.572347 3.117869
v -2.322217 0.507599 3.214048
v -2.337802 0.572849 3.063250
v -2.376953 0.505745 3.068999
v 0.304258 0.973271 3.625806
v 0.232431 0.825509 3.461042
v 0.378221 0.933013 3.634894
v 0.504554 0.876438 3.530528
v 0.191420 0.952918 3.717562
v -0.010678 0.817259 3.646607
v 0.188668 0.904086 3.765503
v 0.019947 0.821339 3.833773
v 0.227789 0.896554 3.827450
v 0.097163 0.806504 3.953593
v 0.228942 0.944210 3.826130
v 0.161629 0.788373 3.989310
v 0.293870 0.936684 3.817991
v 0.304219 0.771368 3.973161
v 0.299032 0.947626 3.818527
v 0.385407 0.774533 3.920762
v 0.374710 0.978621 3.675240
v 0.486622 0.814668 3.732134
v -0.924854 0.933106 2.545435
v -1.004884 0.795476 2.453067
v -0.920176 0.811239 2.840112
v -0.915846 0.925731 2.555607
v -0.686871 1.064881 2.649104
v -0.521593 1.058207 2.766815
v -0.512993 1.281166 2.392284
v -0.320744 1.294253 2.290210
v -0.567141 1.200591 2.342047
v -0.313903 1.298225 2.269646
v -0.676809 1.146705 2.312678
v -0.666548 1.111841 2.151207
vt 0.166667 0.500000
vt 0.166667 0.982614
vt -0.000000 0.982786
vt -0.000000 0.500000
vt 0.666667 0.500000
vt 0.666667 0.986045
vt 0.500000 0.984701
vt 0.500000 0.500000
vt 0.371239 0.985689
vt 0.342988 0.500000
vt 1.000000 0.500000
vt 1.000000 0.982786
vt 0.833333 0.987513
vt 0.833333 0.500000
vt 0.322083 0.500000
vt 0.292400 0.985153
vt 0.166667 0.500000
vt 0.166667 0.971045
vt -0.000000 0.967279
vt -0.000000 0.500000
vt 0.600495 0.969932
vt 0.642375 0.500000
vt 0.688921 0.500000
vt 0.733689 0.969632
vt 0.441362 0.972725
vt 0.468533 0.500000
vt 0.520656 0.500000
vt 0.553174 0.972053
vt 0.275878 0.973450
vt 0.319646 0.500000
vt 0.365053 0.500000
vt 0.391330 0.973495
vt 0.833333 0.500000
vt 0.833333 0.971986
vt 0.166667 0.500000
vt 0.166667 0.980391
vt -0.000000 0.984145
vt -0.000000 0.500000
vt 0.666667 0.500000
vt 0.666667 0.985757
vt 0.500000 0.982697
vt 0.500000 0.500000
vt 0.333333 0.977991
vt 0.333333 0.500000
vt 1.000000 0.500000
vt 1.000000 0.984145
vt 0.833305 0.986845
vt 0.833333 0.500000
vt 0.383906 1.000000
vt 0.495099 1.000000
vt 0.495099 1.000000
vt 0.383906 1.000000
vt 0.833506 0.986833
vt 0.750000 0.490000
vt 0.957846 0.370000
vt 0.957846 0.130000
vt 0.750000 0.010000
vt 0.542154 0.130000
vt 0.542154 0.370000
vt 0.334973 0.289640
vt 0.301213 0.320129
vt 0.158060 0.254386
vt 0.159354 0.201331
vt 0.226941 0.142298
vt 0.345818 0.226835
vt 0.653943 0.994513
vt 0.523675 0.996317
vt 0.340063 0.989867
vt 0.465516 0.996317
vt 0.348124 0.994523
vt 0.323887 0.989867
vt 0.312573 0.994523
vt 0.198535 0.995220
vt 0.990627 0.994351
vt 0.888392 0.997010
vt 0.797969 0.997010
vt 0.686632 0.994513
vt 0.987572 1.000000
vt 0.898836 1.000000
vt 0.694847 1.000000
vt 0.667095 1.000000
vt 0.665853 1.000000
vt 0.504256 1.000000
vt 0.268473 1.000000
vt 0.184161 1.000000
vt 0.156561 1.000000
vt 0.009147 1.000000
vt 0.665853 1.000000
vt 0.504256 1.000000
vt 0.337169 0.266201
vt 0.278976 0.324233
vt 0.122158 0.238764
vt 0.122385 0.231815
vt 0.210694 0.206045
vt 0.359856 0.335783
vt 0.987572 1.000000
vt 0.898836 1.000000
vt 0.156561 1.000000
vt 0.009147 1.000000
vt 0.694847 1.000000
vt 0.667095 1.000000
vt 1.000000 0.500000
vt 1.000000 0.967279
vt 0.750000 0.490000
vt 0.957846 0.370000
vt 0.957846 0.162046
vt 0.927552 0.112510
vt 0.775760 0.024872
vt 0.710758 0.032656
vt 0.581711 0.107162
vt 0.542154 0.149710
vt 0.542154 0.370000
vt 0.333333 0.980073
vt 0.321189 0.985735
vt 0.750000 0.490000
vt 0.957846 0.370000
vt 0.957846 0.130000
vt 0.750000 0.010000
vt 0.554194 0.123049
vt 0.542154 0.146200
vt 0.542154 0.370000
vt 0.972804 1.000000
vt 0.950650 1.000000
vt 0.756982 1.000000
vt 0.720408 1.000000
vt 0.632262 1.000000
vt 0.550508 1.000000
vt 0.427006 1.000000
vt 0.373850 1.000000
vt 0.276863 1.000000
vt 0.237865 1.000000
vt 0.119084 1.000000
vt 0.015335 1.000000
vt 0.005155 0.994351
vt 0.145722 0.995220
vt 0.960205 1.000000
vt 0.916475 1.000000
vt 0.125052 1.000000
vt 0.036203 1.000000
vt 0.363802 1.000000
vt 0.302175 1.000000
vt 0.248523 1.000000
vt 0.216248 1.000000
vt 0.525397 1.000000
vt 0.472760 1.000000
vt 0.409902 1.000000
vt 0.417915 1.000000
vt 0.720420 1.000000
vt 0.616104 1.000000
vt 0.764728 1.000000
vt 0.750686 1.000000
vt 0.580224 1.000000
vt 0.577705 1.000000
vt 0.341556 0.317617
vt 0.273719 0.349531
vt 0.166229 0.284307
vt 0.162402 0.232879
vt 0.200798 0.166390
vt 0.202129 0.172360
vt 0.266230 0.168585
vt 0.271347 0.168311
vt 0.339623 0.286338
vt 0.141079 1.000000
vt 0.022048 1.000000
vt 0.213598 1.000000
vt 0.210103 1.000000
vt 0.184161 1.000000
vt 0.268473 1.000000
vt 0.489063 1.000000
vt 0.420364 1.000000
vt 0.655424 1.000000
vt 0.511460 1.000000
vt 0.667095 1.000000
vt 0.694847 1.000000
vt 0.972901 1.000000
vt 0.930745 1.000000
vn -0.8323 -0.5523 -0.0471
vn 0.4030 0.8196 0.4073
vn -0.1395 0.2817 0.9493
vn 0.1034 0.1577 -0.9821
vn 0.3528 0.4458 -0.8227
vn -0.7229 -0.4825 0.4945
vn -0.5182 0.3678 -0.7721
vn 0.8508 0.0350 0.5243
vn 0.0484 0.2487 0.9674
vn -0.6999 0.4017 0.5906
vn 0.9958 -0.0823 0.0397
vn -0.6075 -0.2756 -0.7450
vn 0.5186 0.4991 0.6942
vn -0.0636 0.5133 0.8559
vn -0.9780 0.0072 0.2086
vn 0.2695 -0.1749 -0.9470
vn 0.1210 0.1111 0.9864
vn 0.8879 0.1370 -0.4392
vn 0.0161 -0.9819 0.1886
vn -0.5698 0.7990 0.1923
vn 0.2660 0.7993 0.5389
vn -0.5244 0.4471 0.7247
vn -0.9525 0.1071 0.2851
vn -0.4960 0.2565 -0.8296
vn 0.4921 0.6131 -0.6180
vn 0.5417 -0.4374 -0.7178
vn 0.7239 -0.4672 -0.5077
vn -0.3067 0.8561 0.4159
vn -0.5025 0.6902 0.5207
vn -0.9597 0.2801 0.0225
vn -0.3792 -0.3213 -0.8677
vn 0.4050 0.7176 0.5666
vn -0.5938 0.7903 0.1510
vn 0.0700 0.3969 -0.9152
vn -0.2495 -0.5097 -0.8234
vn -0.0816 0.9609 0.2645
vn -0.4169 0.3472 0.8400
vn 0.4207 0.0372 -0.9064
vn 0.3873 0.1456 0.9104
vn -0.8331 0.4244 0.3546
vn 0.0774 -0.9597 -0.2702
vn -0.7360 0.0126 0.6769
vn -0.5714 -0.1911 0.7981
vn 0.3707 -0.9157 0.1552
vn -0.5528 0.7717 -0.3145
vn -0.5467 0.8331 -0.0837
vn -0.3420 0.8810 0.3270
vn -0.6506 0.5957 0.4710
vn -0.8851 0.3868 0.2588
vn -0.7870 0.4765 -0.3919
vn -0.8145 -0.0160 -0.5799
vn 0.1086 0.8022 -0.5871
vn -0.4189 0.7848 -0.4568
vn -0.3149 0.8964 0.3119
vn -0.4964 0.8401 0.2188
vn 0.1640 0.6796 0.7150
vn -0.5221 0.7922 0.3160
vn 0.6440 0.6018 0.4722
vn 0.6869 0.7186 0.1089
vn 0.3218 0.6298 0.7070
vn -0.1991 0.9710 0.1321
vn -0.7551 0.6199 -0.2137
vn -0.8747 0.4428 0.1970
vn -0.4844 0.7651 0.4243
vn -0.0377 0.8590 0.5105
vn -0.3960 0.7431 -0.5394
vn -0.3978 0.8935 -0.2083
vn -0.9963 0.0459 0.0730
usemtl None
s off
f 5/1/1 19/2/1 15/3/1 1/4/1
f 3/5/2 17/6/2 18/7/2 4/8/2
f 4/8/3 18/7/3 41/9/3 38/10/3
f 1/11/4 15/12/4 16/13/4 2/14/4
f 2/14/5 16/13/5 17/6/5 3/5/5
f 39/15/6 40/16/6 19/2/6 5/1/6
f 8/17/7 60/18/7 56/19/7 6/20/7
f 70/21/8 37/22/8 36/23/8 72/24/8
f 66/25/9 35/26/9 34/27/9 68/28/9
f 62/29/10 33/30/10 32/31/10 64/32/10
f 7/33/11 58/34/11 72/24/11 36/23/11
f 14/35/12 31/36/12 21/37/12 9/38/12
f 11/39/13 25/40/13 27/41/13 12/42/13
f 12/42/14 27/41/14 29/43/14 13/44/14
f 13/44/15 29/43/15 31/36/15 14/35/15
f 9/45/16 21/46/16 23/47/16 10/48/16
f 28/49/17 26/50/17 78/51/17 75/52/17
f 10/48/18 23/53/18 25/40/18 11/39/18
f 9/54/19 10/55/19 11/56/19 12/57/19 13/58/19 14/59/19
f 45/60/20 43/61/20 53/62/20 51/63/20 49/64/20 47/65/20
f 18/7/21 17/6/21 48/66/21 50/67/21
f 42/68/22 41/9/22 18/7/22 50/69/22 52/70/22
f 19/2/23 40/16/23 42/71/23 52/72/23 54/73/23
f 16/13/24 15/12/24 44/74/24 46/75/24
f 17/6/25 16/13/25 46/76/25 48/77/25
f 23/47/26 21/46/26 20/78/26 22/79/26
f 25/40/27 23/53/27 22/80/27 24/81/27
f 27/41/28 25/40/28 24/82/28 26/83/28
f 29/43/29 27/41/29 26/50/29 28/49/29
f 31/36/30 29/43/30 28/84/30 30/85/30
f 21/37/31 31/36/31 30/86/31 20/87/31
f 26/83/32 24/82/32 80/88/32 78/89/32
f 81/90/33 83/91/33 73/92/33 76/93/33 77/94/33 79/95/33
f 22/79/34 20/78/34 84/96/34 82/97/34
f 20/87/35 30/86/35 74/98/35 84/99/35
f 24/81/36 22/80/36 82/100/36 80/101/36
f 35/26/37 66/25/37 64/32/37 32/31/37
f 6/102/38 56/103/38 58/34/38 7/33/38
f 37/22/39 70/21/39 68/28/39 34/27/39
f 33/30/40 62/29/40 60/18/40 8/17/40
f 6/104/41 7/105/41 36/106/41 37/107/41 34/108/41 35/109/41 32/110/41 33/111/41 8/112/41
f 40/16/42 41/113/42 42/114/42
f 40/16/43 39/15/43 38/10/43 41/9/43
f 1/115/44 2/116/44 3/117/44 4/118/44 38/119/44 39/120/44 5/121/44
f 43/122/45 45/123/45 46/75/45 44/74/45
f 45/124/46 47/125/46 48/77/46 46/76/46
f 47/126/47 49/127/47 50/67/47 48/66/47
f 49/128/48 51/129/48 52/70/48 50/69/48
f 51/130/49 53/131/49 54/73/49 52/72/49
f 53/132/50 43/133/50 44/134/50 54/135/50
f 15/3/51 19/2/51 54/135/51 44/134/51
f 58/34/52 56/103/52 55/136/52 57/137/52
f 56/19/53 60/18/53 59/138/53 55/139/53
f 63/140/54 61/141/54 62/29/54 64/32/54
f 61/142/55 59/143/55 60/18/55 62/29/55
f 67/144/56 65/145/56 66/25/56 68/28/56
f 65/146/57 63/147/57 64/32/57 66/25/57
f 71/148/58 69/149/58 70/21/58 72/24/58
f 57/150/59 71/151/59 72/24/59 58/34/59
f 69/152/60 67/153/60 68/28/60 70/21/60
f 57/154/61 55/155/61 59/156/61 61/157/61 63/158/61 65/159/61 67/160/61 69/161/61 71/162/61
f 73/163/62 83/164/62 84/99/62 74/98/62
f 76/165/63 73/166/63 74/167/63 75/168/63
f 77/169/64 76/170/64 75/52/64 78/51/64
f 79/171/65 77/172/65 78/89/65 80/88/65
f 81/173/66 79/174/66 80/101/66 82/100/66
f 83/175/67 81/176/67 82/97/67 84/96/67
f 30/85/68 28/84/68 75/168/68 74/167/68
