# Blender v3.1.2 OBJ File: 'crystal.blend'
# www.blender.org
mtllib crystal4.mtl
o Cone.001_Cone
v -0.046105 -1.175718 -2.971392
v 0.488306 -0.330085 -2.630702
v -0.074024 -0.219706 -3.114079
v -0.218402 0.632199 -2.730986
v -0.197353 -1.115278 -2.335658
v 0.530562 -1.102730 -2.540041
v 0.558463 -1.116938 -3.348182
v 0.144424 0.508753 -2.756739
v 0.335823 0.322386 -2.897276
v 0.145568 0.032926 -2.560802
v 0.083542 1.115649 -3.165519
v 0.087874 1.198095 -3.144381
v 0.000000 -0.948449 -3.680349
v 0.000000 -0.744119 -3.634159
v 0.000000 -0.229217 -3.517764
v 0.000000 1.221445 -3.189837
v 0.229277 0.805867 -3.151406
v 0.107442 -0.423434 -3.499635
v 0.397634 0.230370 -3.184299
v 0.415998 0.197506 -3.181125
v 0.392621 0.316920 -3.167628
v 0.584720 -1.067487 -3.369669
v 0.542265 -1.084540 -3.398036
v 0.624354 -0.866794 -3.301419
v 0.318612 0.694960 -3.124899
v 0.287113 0.855862 -2.945716
v 0.219605 1.200700 -2.938723
v 0.333838 0.617187 -2.748207
v 0.532061 -0.395355 -2.753918
v 0.579024 -0.635244 -2.835991
v 0.516478 -0.315757 -2.899300
v 0.212593 1.236513 -2.818208
v 0.274187 0.921887 -2.902364
v 0.584347 -0.662434 -3.045262
v 0.480181 -0.130344 -2.915056
v 0.419233 0.180981 -3.008688
v 0.322874 0.673192 -2.864842
v 0.140159 1.275061 -2.785101
v 0.196250 0.613262 -2.667884
v 0.213104 0.665273 -2.689371
v 0.486710 -0.338302 -2.620476
v 0.483978 -0.295617 -2.628548
v 0.302440 0.333492 -2.665949
v 0.334375 0.607880 -2.746413
v -0.000000 0.936691 -2.627691
v 0.022422 0.986798 -2.651963
v -0.000000 0.895981 -2.618488
v -0.000000 -0.536157 -2.294748
v 0.028922 0.743248 -2.600660
v 0.510748 -1.021928 -2.479819
v 0.107429 -0.894181 -2.275840
v 0.237210 0.088848 -2.572986
v 0.187971 -0.073663 -2.507822
v 0.252164 0.315404 -2.632834
v -0.000000 -0.656369 -2.267574
v -0.101891 0.874968 -2.672565
v -0.141017 0.928311 -2.707213
v -0.071732 0.961459 -2.674704
v -0.062647 0.320343 -2.524532
v -0.044393 0.950193 -2.656374
v -0.640930 -0.951468 -2.570907
v -0.283019 -1.061467 -2.339401
v -0.202899 -0.941640 -2.320231
v -0.277169 0.906656 -2.780925
v -0.237413 0.646632 -2.699193
v -0.085873 -0.355548 -2.385154
v -0.115868 0.028909 -2.489380
v -0.050379 1.305000 -2.882269
v -0.061605 1.305000 -2.891042
v -0.069373 1.305000 -2.910641
v 0.021102 1.305000 -2.852890
v -0.041803 1.305000 -2.946549
v -0.252983 1.030199 -2.861223
v -0.275254 0.916438 -2.804368
v -0.673312 -1.116877 -2.921528
v -0.673622 -1.118456 -2.943189
v -0.672810 -1.114309 -2.968264
v -0.226233 1.166839 -3.048648
v -0.644047 -0.967387 -3.312789
v -0.228360 1.155976 -3.072792
v -0.285759 -1.056220 -3.539728
v -0.245914 -1.054946 -3.562445
v -0.257509 -1.013855 -3.546461
v -0.261399 -1.056255 -3.553800
v -0.421161 -0.416626 -3.316971
v -0.054576 -0.148194 -3.467939
v -0.008731 1.226704 -3.183606
v -0.260417 -0.161015 -3.351995
vt 0.941690 0.963726
vt 0.870866 0.904381
vt 0.833333 0.883134
vt 0.833333 0.810713
vt 0.838156 0.794132
vt 0.833333 0.787836
vt 0.833333 0.583948
vt 0.853908 0.545501
vt 0.865362 0.542234
vt 1.000000 0.568305
vt 1.000000 0.607448
vt 0.966457 0.668882
vt 1.000000 0.706089
vt 1.000000 0.983993
vt 0.934011 0.979520
vt 0.752433 0.913958
vt 0.729360 0.926607
vt 0.748487 0.980019
vt 0.666667 0.986880
vt 0.666667 0.868235
vt 0.715679 0.878964
vt 0.724139 0.628306
vt 0.775448 0.623097
vt 0.773387 0.784671
vt 0.742229 0.725030
vt 0.738418 0.689510
vt 0.699473 0.674262
vt 0.666040 0.866452
vt 0.614551 0.994264
vt 0.513876 0.939042
vt 0.500000 0.929443
vt 0.500000 0.921644
vt 0.515323 0.892385
vt 0.607069 0.810422
vt 0.590425 0.767021
vt 0.566797 0.735888
vt 0.500000 0.647288
vt 0.500000 0.624259
vt 0.529107 0.578701
vt 0.629194 0.554228
vt 0.655635 0.685191
vt 0.657310 0.693368
vt 0.629618 0.813887
vt 0.597884 0.867483
vt 0.609723 0.877447
vt 0.413838 0.927837
vt 0.333333 0.923689
vt 0.333333 0.567726
vt 0.428507 0.546654
vt 0.446477 0.569609
vt 0.472524 0.681887
vt 0.457017 0.755538
vt 0.473510 0.811368
vt 0.379092 0.873876
vt 0.440407 0.917618
vt 0.473010 0.932029
vt 0.455693 0.934187
vt 0.185717 0.197923
vt 0.197431 0.188769
vt 0.272019 0.158112
vt 0.206379 0.255844
vt 0.177611 0.218375
vt 0.254067 0.536039
vt 0.321926 0.925563
vt 0.296186 0.947356
vt 0.180592 0.973532
vt 0.166667 0.971451
vt 0.166667 0.564677
vt 0.244276 0.536531
vt 0.249531 0.535736
vt 0.006326 0.985001
vt -0.000000 0.983993
vt -0.000000 0.706089
vt 0.018855 0.721610
vt 0.089260 0.719154
vt 0.130675 0.670187
vt 0.066118 0.555775
vt -0.000000 0.607448
vt -0.000000 0.568305
vt 0.062479 0.547903
vt 0.066275 0.547652
vt 0.072275 0.547659
vt 0.181819 0.000000
vt 0.227273 0.078731
vt 0.136365 0.078731
vt 0.352758 0.138618
vt 0.310266 0.157461
vt 0.272728 0.157461
vt 0.318182 0.078731
vt 0.866770 0.078731
vt 0.864813 0.076692
vt 0.909091 0.000000
vt 0.954545 0.078731
vt 0.727273 0.000000
vt 0.771551 0.076692
vt 0.768974 0.078731
vt 0.685922 0.078731
vt 0.682898 0.076861
vt 0.588626 0.078731
vt 0.500000 0.078731
vt 0.545455 0.000000
vt 0.589830 0.076861
vt 0.355776 0.171076
vt 0.318182 0.236191
vt 0.120906 0.165490
vt 0.143306 0.224168
vt 0.136365 0.236191
vt 0.107165 0.185615
vt 0.636364 0.157461
vt 0.674404 0.157461
vt 0.648506 0.178492
vt 0.266352 0.236191
vt 0.269780 0.162567
vt 0.105709 0.236191
vt 0.621974 0.182385
vt 0.440329 0.232138
vt 0.442518 0.236191
vt 0.409092 0.236191
vt 0.416391 0.223547
vt 0.218347 0.378191
vt 0.181819 0.314921
vt 0.223036 0.314921
vt 0.233105 0.369973
vt 0.436201 0.440607
vt 0.438307 0.415884
vt 0.452901 0.393651
vt 0.481685 0.393651
vt 0.489633 0.409165
vt 0.489105 0.412524
vt 0.460918 0.461346
vt 0.447730 0.460577
vt 0.460542 0.325306
vt 0.488389 0.373540
vt 0.488554 0.314921
vt 0.465672 0.314921
vt 0.648680 0.442879
vt 0.650644 0.447649
vt 0.637986 0.469573
vt 0.629992 0.461346
vt 0.601805 0.412524
vt 0.820136 0.468997
vt 0.816560 0.469573
vt 0.803902 0.447649
vt 0.850482 0.416437
vt 0.112957 0.393651
vt 0.133185 0.399158
vt 0.092981 0.468794
vt 0.088956 0.468997
vt 0.058610 0.416437
vt 0.066473 0.393651
vt 0.069403 0.388835
vt 0.170734 0.314921
vt 0.145291 0.378191
vt 0.230453 0.399158
vt 0.232621 0.393651
vt 0.244928 0.393651
vt 0.291073 0.440607
vt 0.279544 0.460577
vt 0.270657 0.468794
vt 0.236925 0.382885
vt 0.437679 0.285707
vt 0.389710 0.274106
vt 0.388006 0.272712
vt 0.448297 0.248003
vt 0.476477 0.299669
vt 0.118160 0.267722
vt 0.215241 0.257032
vt 0.305287 0.258527
vt 0.334763 0.264910
vt 0.597009 0.157461
vt 0.612290 0.177111
vt 0.166549 0.236191
vt 0.270498 0.157461
vt 0.383703 0.192216
vt 0.495978 0.085697
vt 0.503452 0.084709
vt 0.568246 0.102809
vt 0.583645 0.124367
vt 0.593063 0.082460
vt 0.679665 0.082460
vt 0.734437 0.103210
vt 0.948826 0.088638
vt 0.903536 0.109003
vt 0.969068 0.103885
vt 0.376236 0.135639
vt 0.409092 0.078731
vt 0.413114 0.085697
vt 0.407746 0.111759
vt 0.363637 0.000000
vt 0.121842 0.103885
vt 0.158688 0.117396
vt 0.125731 0.149722
vt 0.218881 0.093266
vn 0.4907 0.1921 -0.8499
vn 0.9814 0.1921 0.0000
vn 0.4907 0.1921 0.8499
vn -0.4907 0.1921 0.8499
vn 0.0000 1.0000 -0.0000
vn -0.9814 0.1921 0.0000
vn -0.4907 0.1921 -0.8499
vn 0.0468 -0.9933 0.1056
vn 0.9524 0.0864 0.2924
vn -0.0873 -0.9935 0.0737
vn -0.0970 -0.9814 -0.1655
vn -0.0244 -0.9811 -0.1922
vn 0.9127 0.3917 0.1166
vn -0.0407 0.4317 0.9011
vn 0.6294 -0.4796 -0.6114
vn 0.5944 0.1243 -0.7945
vn 0.2498 0.2715 0.9295
vn -0.0520 -0.9783 -0.2006
vn 0.8713 0.4898 0.0306
vn -0.4710 0.0138 0.8820
vn 0.3656 0.8978 -0.2455
vn 0.8378 0.0939 -0.5378
vn 0.8582 0.3884 -0.3357
vn -0.4382 0.8336 -0.3364
vn -0.7661 0.5665 0.3036
vn -0.5476 0.4574 0.7007
vn -0.3251 0.8819 0.3414
vn 0.6552 -0.4589 0.6001
vn -0.3285 0.5033 0.7992
vn -0.3411 0.5290 0.7770
vn 0.9964 0.0435 -0.0728
vn 0.9786 0.0171 0.2052
vn 0.7692 0.5367 -0.3467
vn 0.2619 0.0683 0.9627
vn 0.8018 0.5520 0.2289
vn -0.3588 -0.2547 0.8980
vn 0.6770 0.2522 -0.6915
vn 0.9272 -0.3526 -0.1261
vn -0.8598 -0.4893 -0.1461
vn -0.0284 0.2571 0.9660
vn -0.1244 0.4015 0.9074
vn 0.9658 0.1065 0.2363
vn 0.1917 -0.4578 0.8682
vn 0.6968 0.1951 0.6903
vn 0.9039 0.2754 0.3272
vn 0.6031 -0.5649 -0.5631
vn 0.0864 -0.8223 -0.5624
vn -0.6803 0.4654 -0.5661
vn 0.2758 0.4097 -0.8695
vn -0.4434 -0.8106 -0.3827
vn -0.4985 -0.7653 0.4071
vn -0.1006 -0.0912 0.9907
vn 0.8758 -0.3012 0.3771
vn 0.9961 -0.0806 0.0358
vn 0.1099 -0.9937 0.0213
vn -0.1272 -0.0918 0.9876
vn 0.2357 -0.5429 0.8060
vn 0.9735 0.0785 0.2150
usemtl None
s off
f 11/1/1 17/2/1 25/3/1 21/4/1 19/5/1 20/6/1 24/7/1 22/8/1 23/9/1 13/10/1 14/11/1 18/12/1 15/13/1 16/14/1 12/15/1
f 21/4/2 25/3/2 26/16/2 33/17/2 27/18/2 32/19/2 28/20/2 37/21/2
f 30/22/2 34/23/2 24/7/2 20/6/2 36/24/2 35/25/2 31/26/2 29/27/2
f 44/28/3 28/20/3 32/19/3 38/29/3 46/30/3 45/31/3 47/32/3 49/33/3 54/34/3 52/35/3 53/36/3 48/37/3 55/38/3 51/39/3 50/40/3 41/41/3 42/42/3 43/43/3 39/44/3 40/45/3
f 57/46/4 64/47/4 61/48/4 62/49/4 63/50/4 55/38/4 48/37/4 66/51/4 67/52/4 59/53/4 65/54/4 56/55/4 47/32/4 45/31/4 60/56/4 58/57/4
f 69/58/5 68/59/5 71/60/5 72/61/5 70/62/5
f 75/63/6 61/48/6 64/47/6 74/64/6 73/65/6 78/66/6 80/67/6 79/68/6 77/69/6 76/70/6
f 87/71/7 16/72/7 15/73/7 86/74/7 88/75/7 85/76/7 83/77/7 14/78/7 13/79/7 82/80/7 84/81/7 81/82/7 79/68/7 80/67/7
f 1/83/8 6/84/8 5/85/8
f 30/86/9 29/87/9 2/88/9 6/89/9
f 75/90/10 76/91/10 1/92/10 5/93/10
f 1/94/11 76/95/11 77/96/11 81/97/11 84/98/11
f 82/99/12 7/100/12 1/101/12 84/102/12
f 31/103/13 8/104/13 2/88/13 29/87/13
f 48/105/14 53/106/14 10/107/14 66/108/14
f 3/109/15 85/110/15 88/111/15
f 2/88/16 8/104/16 43/112/16 42/113/16
f 67/114/17 66/108/17 10/107/17
f 3/109/18 88/111/18 86/115/18
f 20/116/19 19/117/19 9/118/19 36/119/19
f 56/120/20 4/121/20 49/122/20 47/123/20
f 38/124/21 32/125/21 27/126/21 12/127/21 16/128/21 87/129/21 72/130/21 71/131/21
f 33/132/22 11/133/22 12/127/22 27/126/22
f 17/134/23 11/133/23 33/132/23 26/135/23
f 80/136/24 78/137/24 70/138/24 72/139/24 87/140/24
f 69/141/25 70/142/25 78/143/25 73/144/25
f 57/145/26 58/146/26 68/147/26 69/148/26 73/149/26 74/150/26
f 57/145/27 74/150/27 64/151/27
f 65/152/28 4/121/28 56/153/28
f 58/154/29 60/155/29 46/156/29 38/157/29 71/158/29 68/159/29
f 60/155/30 45/160/30 46/156/30
f 9/118/31 37/161/31 28/162/31 44/163/31
f 37/161/32 9/118/32 19/117/32 21/164/32
f 26/135/33 25/165/33 17/134/33
f 10/107/34 59/166/34 67/114/34
f 59/166/35 10/107/35 4/121/35 65/152/35
f 49/122/36 4/121/36 54/167/36
f 39/168/37 43/112/37 8/104/37
f 40/169/38 39/168/38 8/104/38
f 18/170/39 3/109/39 86/115/39 15/171/39
f 4/121/40 10/107/40 52/172/40 54/167/40
f 10/107/41 53/106/41 52/172/41
f 42/113/42 41/173/42 2/88/42
f 40/169/43 8/104/43 9/118/43 44/163/43
f 9/118/44 8/104/44 31/103/44 35/174/44
f 9/118/45 35/174/45 36/119/45
f 22/175/46 7/100/46 23/176/46
f 13/177/47 23/176/47 7/100/47 82/99/47
f 3/109/48 18/170/48 14/178/48 83/179/48
f 83/180/49 85/110/49 3/109/49
f 81/97/50 77/96/50 79/181/50
f 62/182/51 61/183/51 75/90/51 5/93/51
f 5/93/52 63/184/52 62/182/52
f 34/185/53 7/186/53 22/187/53 24/188/53
f 30/86/54 6/89/54 7/186/54 34/185/54
f 1/189/55 7/186/55 6/89/55
f 63/190/56 5/85/56 51/191/56 55/192/56
f 51/191/57 5/85/57 6/84/57 50/193/57
f 50/193/58 6/84/58 2/88/58 41/173/58
